<svg xmlns="http://www.w3.org/2000/svg" width="24.005" height="23.198" viewBox="0 0 24.005 23.198">
  <g id="Layer_3" data-name="Layer 3" transform="translate(1.03 1.118)">
    <path id="Path_14534" data-name="Path 14534" d="M852.888,12.855l-9.777-9.537a1.228,1.228,0,0,0-1.7,0l-9.777,9.537a1.133,1.133,0,0,0,.851,1.937h1.659v8.68a.6.6,0,0,0,.6.575h4.883V16.7a.584.584,0,0,1,.6-.571H844.3a.584.584,0,0,1,.6.571v7.354h4.883a.6.6,0,0,0,.6-.575V14.8h1.659A1.139,1.139,0,0,0,852.888,12.855Z" transform="translate(-831.287 -2.976)" fill="none" stroke="#5a5c7d" stroke-linecap="round" stroke-miterlimit="10" stroke-width="2"/>
  </g>
</svg>
