<svg xmlns="http://www.w3.org/2000/svg" width="24.985" height="22.391" viewBox="0 0 24.985 22.391">
  <g id="Icon_feather-user-plus" data-name="Icon feather-user-plus" transform="translate(1 1)">
    <path id="Path_14785" data-name="Path 14785" d="M18.048,30.222V27.648c0-2.843-1.976-5.148-4.413-5.148H5.913C3.476,22.5,1.5,24.8,1.5,27.648v2.574" transform="translate(-1.5 -10.365)" fill="none" stroke="#464c6c" stroke-linecap="round" stroke-linejoin="round" stroke-width="2"/>
    <path id="Path_14786" data-name="Path 14786" d="M15.575,8.913A4.413,4.413,0,1,1,11.163,4.5a4.413,4.413,0,0,1,4.413,4.413Z" transform="translate(-2.889 -4.5)" fill="none" stroke="#464c6c" stroke-linecap="round" stroke-linejoin="round" stroke-width="2"/>
    <path id="Path_14983" data-name="Path 14983" d="M33.314,29.18V26.97A4.419,4.419,0,0,0,30,22.7" transform="translate(-10.329 -8.789)" fill="none" stroke="#464c6c" stroke-linecap="round" stroke-linejoin="round" stroke-width="2"/>
    <path id="Path_14984" data-name="Path 14984" d="M24,4.7a4.419,4.419,0,0,1,0,8.562" transform="translate(-8.534 -4.462)" fill="none" stroke="#464c6c" stroke-linecap="round" stroke-linejoin="round" stroke-width="2"/>
  </g>
</svg>
